<svg xmlns="http://www.w3.org/2000/svg" width="180.749" height="53.307" viewBox="0 0 180.749 53.307">
  <path id="Tracé_24" data-name="Tracé 24" d="M-120.7-21.576a9.36,9.36,0,0,0-3.073.483.976.976,0,0,1-.7.132,2.81,2.81,0,0,0-1.8.044c-.483.132-.483.307-.483.659.044.615.088,1.229.088,1.8,0,2.853,0,5.663-.044,8.517-.044,2.5.263,5.048.088,7.551a1.771,1.771,0,0,0,0,.483,8.616,8.616,0,0,1,.176,1.8c.088,2.107.088,4.17.263,6.234a1.748,1.748,0,0,0,.22.966,2.427,2.427,0,0,1,.307,1.1c-.044.263.088.571.307.615.615.132.966.615,1.58.878a23.985,23.985,0,0,0-.044-2.546c-.088-1.449-.351-2.9-.4-4.346-.044-2.634-.307-5.224-.307-7.814,0-3.644.088-7.243.176-10.887,0-.088-.088-.263.22-.351.219,1.1.527,2.195.7,3.292a46.686,46.686,0,0,0,1.449,5.4c.7,2.283,1.493,4.522,1.975,6.848.4,1.712,1.01,3.292,1.4,5,.263,1.1.615,2.151.922,3.249.132.483.351.834.922.878.483.044.878.527,1.4.263.746.439,1.58.176,2.415.307.351.044.658,0,.922.351a.326.326,0,0,0,.483.176,1.263,1.263,0,0,0,.79-1.273c0-.219-.044-.4-.044-.615,0-.4-.351-.79.219-1.185.263-.176.132-.746.132-1.185-.088-1.536-.439-3.029-.527-4.566-.088-1.229-.4-2.458-.4-3.644.044-1.975-.088-3.907,0-5.839.088-1.1-.044-2.151-.044-3.2.044-1.4-.044-2.766.044-4.127a39.757,39.757,0,0,0-.307-3.995,2.058,2.058,0,0,0-1.273-1.141c-.132,0-.351,0-.439.132a1.654,1.654,0,0,0-.439.922c.088,2.107.044,4.17-.044,6.278a17.614,17.614,0,0,0,.088,2.634c.044.834.132,1.668.132,2.546,0,.7-.132,1.4-.132,2.063.088,1.141.132,2.283.132,3.38,0,.176-.044.4.263.483a7.113,7.113,0,0,0,.044-.966c.044-.307-.132-.615.088-.922a21.866,21.866,0,0,1,.219,6.541c-.132,0-.176-.132-.219-.219-.483-1.712-1.01-3.424-1.493-5.136-.307-1.01-.527-2.063-.878-3.073-.966-2.634-1.668-5.4-2.634-8.034-.659-1.712-.746-3.512-1.317-5.224-.22-.615-.746-.966-.878-1.58C-120.437-21.532-120.613-21.576-120.7-21.576Zm7.419,28.623c.527-.044.571.351.746.7C-113.326,7.837-113.326,7.837-113.282,7.047ZM-85.8-9.635c-.439.527-.527.088-1.01.307-.132.044-.219-.219-.088-.263,2.2-.746-1.493-.263-2.063,0a5.7,5.7,0,0,0-2.5,2.678,6.568,6.568,0,0,0-.483,1.493c-.22.79-.527,1.536-.7,2.327-.263,1.493-.044,3.029-.176,4.522-.044.351,0,.4-.351.658-.79.659-1.141,1.317-2.195,2.107a13.28,13.28,0,0,1-2.9,1.8,1.717,1.717,0,0,1-1.317.132,18.126,18.126,0,0,1-1.668-1.1,3.185,3.185,0,0,1-.219-.4,9.326,9.326,0,0,1-.834-1.844c-.088-.263,0-.4.263-.571.922-.615,2.458-1.58,2.81-1.8a7.272,7.272,0,0,0,1.273-.79A2.955,2.955,0,0,1-97.3-.987a3.424,3.424,0,0,0,1.229-1.8,5.245,5.245,0,0,0,.4-3.38c-.044-.263-.176-.615-.044-.878.132-.351-.044-.571-.307-.79a1.5,1.5,0,0,0-.79-.483,5.679,5.679,0,0,1-1.141-.351A3.833,3.833,0,0,0-101.6-8.8c-.439.132-.746.307-1.1.044-.307-.219-.527-.088-.659.219l-.263.483c-.922-.4-1.141-.351-1.624.263A8.121,8.121,0,0,0-107-3.4a38.728,38.728,0,0,0-.132,3.907,8.509,8.509,0,0,1-.088,1.975c0,.4.132,1.141.132,1.361a1.979,1.979,0,0,0,.132.483A8.233,8.233,0,0,0-104.5,8.539a1.137,1.137,0,0,0,.483.307c1.273.483,2.019.966,3.336.483.878-.351,2.283-.527,2.766-1.449a.54.54,0,0,1,.483-.307c.439.088.746-.483,1.1-.746s1.054-.571,1.229-.966a5.273,5.273,0,0,1,1.888-1.975c.132-.088.263-.483.483-.4.044.044.044.263.044.307l.088.22a4.044,4.044,0,0,0,1.888,3.161.781.781,0,0,1,.351.307,4.615,4.615,0,0,0,3.644,1.449c.483.044.922,0,1.4.088a1.469,1.469,0,0,0,1.229-.176c.571-.439,1.536-.615,2.019-1.054a10.342,10.342,0,0,1,1.536-1.4c.571-.439,1.229-1.1,1.8-1.58.219-.176,1.141-.922,1.4-1.1a.3.3,0,0,0,.132-.351.294.294,0,0,0-.307-.176,3.885,3.885,0,0,0-1.756.746,6.233,6.233,0,0,1-1.229.878,12.248,12.248,0,0,0-1.932,1.4,1.634,1.634,0,0,1-.878.307c-1.229-.044-2.5-.044-3.468-1.01a6.557,6.557,0,0,1-1.58-2.59,3.9,3.9,0,0,0-.7-1.668A7.44,7.44,0,0,1-87.556.242c.922-.658,1.054-1.185,2.107-1.624a16.029,16.029,0,0,0,1.4-1.141c.439-.439,1.361-.746,1.536-1.317a9.614,9.614,0,0,0,.439-1.493c.176-1.361.351-.922-.263-2.151-.439-.878-.79-1.449-1.8-1.668a.9.9,0,0,1-.659-.351A.823.823,0,0,0-85.8-9.635Zm-.483,1.1c.044,0,.132.176.263.7a3.881,3.881,0,0,1,.176,2.283A6.7,6.7,0,0,1-86.152-4.5a9.2,9.2,0,0,1-.834,1.668A16.285,16.285,0,0,1-89.312-.5a4.018,4.018,0,0,1,.088-1.8l.658-3.161A10.3,10.3,0,0,1-87.6-7.44a2.365,2.365,0,0,0,.307-.571C-87.161-8.494-86.766-8.582-86.283-8.538Zm-13.7.746c.088-.044.219.044.263.132.263.79.834,1.4.79,2.327a1.733,1.733,0,0,1-.176.922c-.263.615-.088,1.888-.571,2.59-.132.22-.088.351-.263.483a.918.918,0,0,0-.263.176c-.79.878-1.756,1.229-2.546,2.019a13.77,13.77,0,0,1,.088-5.531,4.848,4.848,0,0,0,.132-.7,2.064,2.064,0,0,1,.746-1.8C-101.209-7.748-100.639-7.66-99.98-7.791Zm2.063,1.624a.733.733,0,0,1,0,1.1Zm31.3-11.765a1.122,1.122,0,0,1-.658,0c-.659-.044-.746.044-.615.746,0,.044-.044.088-.088.176-.4-.219-.658-.79-1.185-.439-.4,3.424-.659,6.848-1.054,10.273a5.082,5.082,0,0,0-2.546-1.668,1.21,1.21,0,0,1-.4-.307,1.14,1.14,0,0,0-1.229-.176c-.132.044-.263.176-.439.176A3.912,3.912,0,0,0-77.811-6.87,11.2,11.2,0,0,0-79-2.962a14.145,14.145,0,0,0-.088,4.3,9.411,9.411,0,0,0,.7,3.292,10.553,10.553,0,0,1,.483,1.01,5.232,5.232,0,0,0,1.975,3.029,7.067,7.067,0,0,0,4.039,1.054c.527-.088,1.229-1.054,1.229-1.1a4.6,4.6,0,0,0,.307-2.283l-.088.176a.713.713,0,0,0-.4.219,2.873,2.873,0,0,1-1.624,1.185,1.126,1.126,0,0,1-1.58-1.01,4.507,4.507,0,0,0-.219-1.054,10.111,10.111,0,0,1-.307-3.819c.088-.79.088-1.624.219-2.414a5.5,5.5,0,0,0-.176-2.063,4.719,4.719,0,0,1,.527-2.9,2.866,2.866,0,0,0,.351-.746c.044-.176.132-.4.351-.4.571.044.746-.351.966-.834A4.75,4.75,0,0,1-70.7-5.421a4.818,4.818,0,0,1,.4,2.59,27.275,27.275,0,0,0,.176,5A26.975,26.975,0,0,0-69.6,6.388c.044.22.176.615.263.966.176.176.307.4.483.571a3.039,3.039,0,0,0,3.468,1.229,3.711,3.711,0,0,0,1.756-.7A6.568,6.568,0,0,1-62.27,7.091a7.137,7.137,0,0,0,1.58-1.668c.132-.176.22-.351.439-.4.659-.088.966-.615,1.273-1.141a.771.771,0,0,1,.176-.219.84.84,0,0,0,.176-.659.727.727,0,0,0-.527,0A10.885,10.885,0,0,0-61.743,4.9c-.878,1.141-1.01.79-2.239,1.536-.571.307-1.01.088-1.1-.571a7.134,7.134,0,0,1-.132-1.668A7.711,7.711,0,0,0-65.3,2.174,5.338,5.338,0,0,1-65.387.506a12.312,12.312,0,0,0,0-1.8,11.555,11.555,0,0,1,.132-2.458,11,11,0,0,0,.176-2.678c0-1.844.22-3.644.132-5.487,0-.878-.307-1.712-.4-2.59a22.4,22.4,0,0,0-.571-2.985C-66.045-17.845-66.221-18.108-66.616-17.932Zm.439,25.374a.639.639,0,0,1,.4.351c.088.176.176.307-.044.4a.267.267,0,0,1-.4-.176A.856.856,0,0,1-66.177,7.442Zm-9.746.088A4.826,4.826,0,0,1-74.43,8.671C-74.825,8.715-75.747,7.837-75.923,7.53Zm26.3-25.9a1.178,1.178,0,0,0-.615,1.273,3.584,3.584,0,0,1-.176,2.019c-.307-.483-.132-1.624-.439-1.4a6.479,6.479,0,0,0-.219,2.019,7.984,7.984,0,0,1,0,1.449c0,.307.044.351-.263.351-.966.088-2.458.439-3.38.527,0,1.01.263,1.054,1.185,1.054a5.559,5.559,0,0,1,2.107-.088c-.527.044-1.317.307-1.756.351,0,.263,1.624.219,2.239.088a1.737,1.737,0,0,1,.088.922c-.088,1.8-.176,3.556-.307,5.356-.132,2.151,0,4.346-.044,6.5a27.811,27.811,0,0,0,.176,3.819A6.191,6.191,0,0,0-49.89,8.5c.088.132.132.219.307.132.307-.132.351.088.439.307.176.351.307.7.483,1.054.088.132.22.351.351.219.307-.263.527-.044.79-.044a3.29,3.29,0,0,0,2.81-.7,2.015,2.015,0,0,1,.615-.307c.7-.263.746-.483,1.4-.922.527-.351.746-.878,1.4-1.273.7-.4.878-1.361.527-1.361-.571,0-1.624.878-2.853,1.493l-.878.439a.333.333,0,0,1-.439-.044,2.088,2.088,0,0,1-1.01-1.4c-.088-.922-.219-1.844-.263-2.766a42.271,42.271,0,0,1-.4-4.741,31.3,31.3,0,0,0-.132-4.039c-.088-1.58-.351-3.117-.4-4.741-.044-.658,0-.79.658-.7a6.884,6.884,0,0,0,1.449-.176c.571-.088,1.1,0,1.4-.044.966-.176,2.327-.176,2.941-.834-.22-.219-1.1-.351-.79-.483.79-.351-.7-.7-1.229-.7a11.459,11.459,0,0,1-1.844.176c.966-.263-.7-.044-1.01,0a13.046,13.046,0,0,1-1.756.132,28.2,28.2,0,0,0-.571-2.9A4.026,4.026,0,0,0-49.627-18.371Zm2.239,24.189c.176,0,.615,1.141,1.1,1.624.571.571-.439.263-.571-.044-.044-.132-.263-.088-.263-.263A8.715,8.715,0,0,1-47.388,5.818ZM-36.632-9.723a.936.936,0,0,1,1.01.044c0,.22-.263.351-.263.615.351.044.79.351.878-.351,0-.132.176-.088.263-.132a4.976,4.976,0,0,1,3.292,1.1.2.2,0,0,1,.132.176,7.293,7.293,0,0,0,1.4,1.888,6.744,6.744,0,0,1,.878,2.371c.088.439.132.878.176,1.317A19.853,19.853,0,0,0-28.511.067a3.669,3.669,0,0,1-.263,2.458,2.38,2.38,0,0,0-.263,1.1,4.786,4.786,0,0,1-.79,2.678c-.4.746-.79,1.4-1.229,2.151a2.662,2.662,0,0,1-1.536.922c-.7-.746.351-.7.439-1.1-.263-.132-.527.044-.7.132-.7.439-1.493.658-2.195,1.01a1.687,1.687,0,0,1-1.756-.044A15.641,15.641,0,0,1-39.4,7.486a7.071,7.071,0,0,1-1.888-3.292A18.041,18.041,0,0,1-41.505-.9a15.882,15.882,0,0,1,.878-4.741A5.36,5.36,0,0,1-37.6-9.2,6.783,6.783,0,0,0-36.632-9.723Zm2.195,2.063a2.211,2.211,0,0,1-1.4.176c-.132.615-.439,1.141-.571,1.756A4.5,4.5,0,0,0-36.72-3.84a13.651,13.651,0,0,1,.044,2.678A6.839,6.839,0,0,0-36.72.725c0,.483.044,1.01,0,1.493a7.277,7.277,0,0,0,1.054,4.566c.088.176.132.4.4.307.615-.22.746.263.922.7a1.012,1.012,0,0,0,.746-.527,5.85,5.85,0,0,0,1.317-3.292c.176-1.8.263-3.6.307-5.4l-.088-3.688A3,3,0,0,0-33.208-7.44,1.018,1.018,0,0,0-34.437-7.66Zm.527,17.384c.132-.263.263-.263.4-.351.219-.044.351-.132.4.088a.275.275,0,0,1-.22.4A1.352,1.352,0,0,1-33.911,9.725Zm19.492-27.7c-.746-.22-1.229.088-1.273.878,0,.351.219.834-.4.966a.877.877,0,0,0-.088.4c.044.878,0,1.756.088,2.634.132,1.273.088,2.546.132,3.863,0,1.58-.219,3.161-.263,4.741-.044,3.688-.176,7.331-.044,10.975.044.746.176,1.185.571,1.449.132.044.483.878.658.922.219.044.263-.176.527-.176.219,0,.483-.658.571-.351.132.658.439,1.449.746.79.132-.219.483.307.658.527s.351.132.527-.088A3.18,3.18,0,0,0-11.39,7.31,7.451,7.451,0,0,1-11.346,5.6a22.634,22.634,0,0,0,.263-3.468C-11.126,1.12-11.126.111-11.17-.9a.557.557,0,0,1,.263-.571c.439.922,1.1,1.668,1.449,2.634a30.2,30.2,0,0,0,2.985,6.1c.22.351.439.7.615,1.054a3.058,3.058,0,0,0,1.273,1.4c.22-.088.4-.615.571-.439.439.4.307-.307.483-.483.351-.307.483-.263.658,0a1.182,1.182,0,0,0,1.361.351,3.917,3.917,0,0,0,.834-.307,2.813,2.813,0,0,0-.7-1.449,2.74,2.74,0,0,1-.439-.7c-.483-.79-.878-1.712-1.4-2.458-1.141-1.58-1.844-3.38-2.9-4.961C-6.868-1.865-7.351-3.138-8.58-3.84-7.7-5.07-6.6-6.079-5.683-7.265c.571-.658.966-1.624,1.8-2.063.483-.219.219-1.185.263-1.493,0-.263-.834.4-1.01.527-.7.483-1.054,1.01-1.888,1.712-1.361,1.8-2.941,3.38-4.39,5.048-.088.132-.176.351-.483.263a34.472,34.472,0,0,1-.088-3.688,18.037,18.037,0,0,0-.176-4.346,2.708,2.708,0,0,1-.088-1.054,9.188,9.188,0,0,0-.351-4.609,1.024,1.024,0,0,0-.878-.834c-.176.088-.132.4-.351.483C-13.717-17.449-13.98-17.845-14.419-17.976Zm4.39,15.189c.351,0,.571.834.659,1.01-.176.132-.483-.571-.571-.658A.249.249,0,0,1-10.029-2.787Zm20.15-6.629A3.229,3.229,0,0,0,6.829-8.274,12.213,12.213,0,0,0,4.9-5.114a1.358,1.358,0,0,1-.483.7A10.444,10.444,0,0,1,4.107-7a1.468,1.468,0,0,0-.571-1.361c-.4-.307-.834-.527-1.229-.834a1,1,0,0,0-1.054-.176,1.122,1.122,0,0,1-.659,0C.024-9.46-.02-9.46-.02-8.845v7.726C-.02.9.024,2.876.024,4.9A8.39,8.39,0,0,0,.639,8.013c.132.351.22.7.615.878.088-.176-.044-.4.176-.527a1.533,1.533,0,0,1,.527.658c.439.7.922.79,1.536.351a2.3,2.3,0,0,1,.483-.307c.527-.132.7-.307.7-.79A54.282,54.282,0,0,1,4.9,2.306a9.5,9.5,0,0,0,0-1.58A8.928,8.928,0,0,1,5.16-3.138,11.889,11.889,0,0,1,8.585-8.011c.571-.571,1.054-.219,1.141.4A3.631,3.631,0,0,1,9.77-6.079,28.911,28.911,0,0,0,9.243.374c-.044,1.449-.044,2.853.044,4.3A7.4,7.4,0,0,0,10.3,8.364a2.966,2.966,0,0,0,2.941,1.493,2.131,2.131,0,0,0,1.141-.527,2.629,2.629,0,0,0,1.4-.79A2.63,2.63,0,0,0,17.1,7.486a4.811,4.811,0,0,1,1.976-1.668c.658-.307.878-1.273,1.1-1.844a.277.277,0,0,0-.4,0c-1.536,1.054-2.766,1.8-4.3,2.853a1.636,1.636,0,0,1-1.712-.658,8.089,8.089,0,0,1-.439-2.283c.044-1.01-.088-2.063,0-3.117.176-2.063.176-4.17.176-6.278a12.666,12.666,0,0,0-.79-2.678l-.176-.176A8.57,8.57,0,0,0,10.121-9.416Zm12.116-.307a.936.936,0,0,1,1.01.044c0,.22-.263.351-.263.615.351.044.79.351.878-.351,0-.132.176-.088.263-.132a4.976,4.976,0,0,1,3.292,1.1.2.2,0,0,1,.132.176,7.293,7.293,0,0,0,1.4,1.888,6.744,6.744,0,0,1,.878,2.371c.088.439.132.878.176,1.317A19.854,19.854,0,0,0,30.359.067,3.669,3.669,0,0,1,30.1,2.525a2.38,2.38,0,0,0-.263,1.1,4.786,4.786,0,0,1-.79,2.678c-.4.746-.79,1.4-1.229,2.151a2.662,2.662,0,0,1-1.536.922c-.7-.746.351-.7.439-1.1-.263-.132-.527.044-.7.132-.7.439-1.493.658-2.195,1.01a1.687,1.687,0,0,1-1.756-.044,15.642,15.642,0,0,1-2.59-1.888,7.071,7.071,0,0,1-1.888-3.292A18.041,18.041,0,0,1,17.365-.9a15.882,15.882,0,0,1,.878-4.741A5.36,5.36,0,0,1,21.272-9.2,6.783,6.783,0,0,0,22.238-9.723Zm2.2,2.063a2.211,2.211,0,0,1-1.4.176c-.132.615-.439,1.141-.571,1.756A4.5,4.5,0,0,0,22.15-3.84a13.651,13.651,0,0,1,.044,2.678A6.84,6.84,0,0,0,22.15.725c0,.483.044,1.01,0,1.493A7.277,7.277,0,0,0,23.2,6.783c.088.176.132.4.4.307.615-.22.746.263.922.7a1.012,1.012,0,0,0,.746-.527,5.85,5.85,0,0,0,1.317-3.292c.176-1.8.263-3.6.307-5.4L26.8-5.114A3,3,0,0,0,25.662-7.44,1.018,1.018,0,0,0,24.433-7.66Zm.527,17.384c.132-.263.263-.263.4-.351.219-.044.351-.132.4.088a.275.275,0,0,1-.22.4A1.352,1.352,0,0,1,24.959,9.725Zm26.208-20.37c-.219-.044-.176.219-.4.351-.263.176-.307.351-.307.307a1.726,1.726,0,0,0-.088.263c-.615-.044-.439.483-.483.746-.132.439-.176.878-.263,1.317-.219,1.273-.746,2.458-.966,3.731a8.527,8.527,0,0,1-.307,1.449C47.7-.767,47.3.989,46.69,2.745c-.088.22-.088.483-.307.658-.219-.088-.176-.263-.176-.439a44.664,44.664,0,0,0-.659-6.848,7.491,7.491,0,0,0-1.361-3.468,2.3,2.3,0,0,0-.483-.439,7.127,7.127,0,0,0-1.844-.659c-.834-.219-1.229.22-1.141,1.054A8.884,8.884,0,0,0,40.9-6.255a2.344,2.344,0,0,1-.088.966c-.351,1.4-.922,2.722-1.361,4.039-.4,1.185-.746,2.371-1.1,3.556a2.673,2.673,0,0,1-.527,1.141l-.132-.878a22.84,22.84,0,0,1-.439-3.424c-.088-1.185-.4-2.371-.439-3.556a13.071,13.071,0,0,0-.307-2.239,11.3,11.3,0,0,1-.351-1.756,1.293,1.293,0,0,0-1.4-1.229c-.483.044-1.185-.263-1.361.527-.527,0-.834.615-1.4.351-.088.439.263.79.132,1.185-.351-.219-.132-.746-.527-.922-.132.219,0,.4.044.571.351,1.58.615,3.2.878,4.829a45.113,45.113,0,0,0,1.054,5.4,18.478,18.478,0,0,1,.4,2.722A24.816,24.816,0,0,0,34.442,8.1a2.382,2.382,0,0,0,1.493,1.932c.7.307.79.351,1.229-.263.4-.483.4-.483.966-.263a.727.727,0,0,0,.22-.527c.088-1.054.571-2.019.7-3.073a66.178,66.178,0,0,1,1.8-6.585,2.164,2.164,0,0,1,.483-1.01.6.6,0,0,1,.176.571c.088,1.58.132,3.117.263,4.7a14.822,14.822,0,0,0,.439,3.073,2.934,2.934,0,0,0,1.58,1.8c.176-.132-.088-.307.176-.439a4.821,4.821,0,0,0,1.844,1.536c.659-.351.79-.4.834-.7.176-.746.615-1.361.79-2.063A33.07,33.07,0,0,0,48.49,3.227,33.116,33.116,0,0,1,49.456-.9,24.451,24.451,0,0,0,50.6-5.6a19.839,19.839,0,0,1,.571-3.6c.132-.4.132-.571.263-1.01A.365.365,0,0,0,51.168-10.645Z" transform="translate(127.063 36.863) rotate(7)" fill="#f8cc93"/>
</svg>
